<?xml version="1.0" encoding="UTF-8" standalone="no"?>
<svg
   width="324.23062"
   height="316.01184"
   viewBox="0 0 324.23062 316.01184"
   version="1.1"
   xml:space="preserve"
   style="clip-rule:evenodd;fill-rule:evenodd;stroke-linejoin:round;stroke-miterlimit:2"
   id="svg15"
   xmlns="http://www.w3.org/2000/svg"
   xmlns:svg="http://www.w3.org/2000/svg"
   xmlns:serif="http://www.serif.com/"><defs
   id="defs15" />
    <g
   id="id--logo-icon-"
   serif:id="id=&quot;logo-icon&quot;"
   transform="matrix(4.16667,0,0,4.16667,-140.15553,-2443.0686)">
            <g
   transform="matrix(0.649706,0,0,0.649706,33.6373,586.336)"
   id="g1">
                <path
   d="M 0,116.734 V 33.395 C 0,19.045 27.87,0 59.885,0 90.981,0 119.77,19.321 119.77,33.395 v 83.339 z"
   style="fill:#bb2028;fill-rule:nonzero"
   id="path1" />
            </g>
            <g
   transform="matrix(0.649706,0,0,0.649706,-66.3747,226.618)"
   id="g2">
                <rect
   x="161.386"
   y="597.60901"
   width="21.306999"
   height="7.3140001"
   style="fill:#ffffff"
   id="rect1" />
            </g>
            <g
   transform="matrix(0.649706,0,0,0.649706,-66.3747,226.619)"
   id="g3">
                <rect
   x="190.64301"
   y="597.60797"
   width="46.271999"
   height="7.3140001"
   style="fill:#ffffff"
   id="rect2" />
            </g>
            <g
   transform="matrix(0.649706,0,0,0.649706,-66.3747,226.619)"
   id="g4">
                <rect
   x="244.548"
   y="597.60797"
   width="21.784"
   height="7.3140001"
   style="fill:#ffffff"
   id="rect3" />
            </g>
            <g
   transform="matrix(0.649706,0,0,0.649706,-66.3747,257.304)"
   id="g5">
                <rect
   x="161.386"
   y="565.80603"
   width="21.306999"
   height="23.688999"
   style="fill:#ffffff"
   id="rect4" />
            </g>
            <g
   transform="matrix(0.649706,0,0,0.649706,-66.3747,257.507)"
   id="g6">
                <rect
   x="244.548"
   y="565.80701"
   width="21.784"
   height="23.374001"
   style="fill:#ffffff"
   id="rect5" />
            </g>
            <g
   transform="matrix(0.649706,0,0,0.649706,38.4785,595.895)"
   id="g7">
                <path
   d="M 0,22.077 H 21.307 V 0 C 21.307,0 0,7.607 0,22.077"
   style="fill:#ffffff;fill-rule:nonzero"
   id="path6" />
            </g>
            <g
   transform="matrix(0.649706,0,0,0.649706,92.5092,595.895)"
   id="g8">
                <path
   d="M 0,22.077 V 0 c 0,0 20.082,6.336 21.784,22.077 z"
   style="fill:#ffffff;fill-rule:nonzero"
   id="path7" />
            </g>
            <g
   transform="matrix(0.649706,0,0,0.649706,57.4874,591.126)"
   id="g9">
                <path
   d="M 0,29.417 H 46.272 V 4.44 C 46.272,4.44 33.802,0 23.136,0 12.469,0 0,4.692 0,4.692 Z"
   style="fill:#ffffff;fill-rule:nonzero"
   id="path8" />
            </g>
            <g
   transform="matrix(0.649706,0,0,0.649706,-66.3747,257.507)"
   id="g10">
                <rect
   x="190.64301"
   y="565.80701"
   width="19.596001"
   height="23.374001"
   style="fill:#ffffff"
   id="rect9" />
            </g>
            <g
   transform="matrix(0.649706,0,0,0.649706,-66.3747,257.508)"
   id="g11">
                <rect
   x="217.32001"
   y="565.64899"
   width="19.596001"
   height="23.688999"
   style="fill:#ffffff"
   id="rect10" />
            </g>
        </g>
</svg>
